<svg xmlns="http://www.w3.org/2000/svg" xmlns:xlink="http://www.w3.org/1999/xlink" viewBox="0,0,256,256" width="48px" height="48px" fill-rule="nonzero"><g fill="#339af0" fill-rule="nonzero" stroke="none" stroke-width="1" stroke-linecap="butt" stroke-linejoin="miter" stroke-miterlimit="10" stroke-dasharray="" stroke-dashoffset="0" font-family="none" font-weight="none" font-size="none" text-anchor="none" style="mix-blend-mode: normal"><g transform="scale(10.66667,10.66667)"><path d="M11,4l-8,5h5.49219c-0.0206,0.0755 -0.05382,0.14412 -0.07031,0.22266c-0.046,0.242 -0.08203,0.50816 -0.08203,0.78516c0,3.571 3.65039,3.16797 3.65039,3.16797v0.91016c0,0.369 0.48402,0.24123 0.54102,0.99023c-0.242,0 -5.05664,-0.13862 -5.05664,3.10938c0,3.26 4.25,3.09961 4.25,3.09961c0,0 4.9082,0.2195 4.9082,-3.8125c0.002,-2.409 -2.81055,-3.19316 -2.81055,-4.16016c0,-0.979 2.11914,-1.26659 2.11914,-3.55859c0,-1.002 -0.06858,-1.71566 -0.51758,-2.22266c-0.035,-0.035 -0.0578,-0.05903 -0.0918,-0.08203c-0.00773,-0.0072 -0.01755,-0.01244 -0.02539,-0.01953h0.12305l2.07031,-1.55273v2.12305c-0.00057,0.03874 0.00336,0.07741 0.01172,0.11523c-0.31978,0.17891 -0.51611,0.51837 -0.51172,0.88477v1c-0.0051,0.36064 0.18438,0.69608 0.49587,0.87789c0.3115,0.18181 0.69676,0.18181 1.00825,0c0.3115,-0.18181 0.50097,-0.51725 0.49587,-0.87789v-1c0.00439,-0.3664 -0.19194,-0.70586 -0.51172,-0.88477c0.00836,-0.03783 0.01229,-0.0765 0.01172,-0.11523v-2.875l1.5,-1.125zM11.69141,7.05273c0.28781,-0.01303 0.57752,0.05689 0.85352,0.21289c0.207,0.104 0.40122,0.2525 0.57422,0.4375c0.357,0.357 0.65736,0.87533 0.81836,1.48633c0.38,1.451 -0.11367,2.84633 -1.13867,3.11133c-1.014,0.287 -2.14416,-0.65961 -2.53516,-2.09961c-0.173,-0.702 -0.14912,-1.38088 0.04688,-1.92188c0.00185,-0.00698 0.0059,-0.0126 0.00781,-0.01953c0.00336,-0.00165 0.00846,-0.00623 0.01172,-0.00781c0.05618,-0.21389 0.14802,-0.40579 0.25977,-0.56445c0.20554,-0.30028 0.47663,-0.50366 0.81445,-0.59375c0.095,-0.023 0.19117,-0.03667 0.28711,-0.04102zM12.08203,15.68555c1.693,-0.127 3.13428,0.80527 3.23828,2.07227c0.07,1.256 -1.2325,2.37328 -2.9375,2.48828c-1.693,0.115 -3.15533,-0.80455 -3.23633,-2.06055c-0.081,-1.267 1.23055,-2.373 2.93555,-2.5z"></path></g></g></svg>