<?xml version="1.0" standalone="no"?>
<!DOCTYPE svg PUBLIC "-//W3C//DTD SVG 20010904//EN"
 "http://www.w3.org/TR/2001/REC-SVG-20010904/DTD/svg10.dtd">
<svg version="1.0" xmlns="http://www.w3.org/2000/svg"
 width="700.000000pt" height="700.000000pt" viewBox="0 0 700.000000 700.000000"
 preserveAspectRatio="xMidYMid meet">
<metadata>
Created by potrace 1.11, written by Peter Selinger 2001-2013
</metadata>
<g transform="translate(0.000000,700.000000) scale(0.100000,-0.100000)"
fill="#000000" stroke="none">
<path d="M940 5536 c0 -41 14 -70 57 -114 7 -7 29 -34 50 -59 35 -43 295 -358
381 -462 21 -24 44 -55 52 -70 13 -23 15 -186 17 -1266 1 -882 -1 -1253 -9
-1285 -10 -41 -70 -123 -224 -309 -72 -86 -142 -171 -174 -211 -96 -118 -143
-175 -149 -180 -4 -3 -21 -24 -37 -48 -23 -31 -31 -53 -30 -80 l1 -37 780 0
780 0 -1 47 c-1 47 -11 62 -171 248 -11 14 -111 135 -222 270 -141 172 -205
258 -216 290 -13 40 -15 176 -13 1088 l3 1043 179 -393 c99 -216 199 -433 222
-483 59 -129 84 -184 194 -425 101 -223 126 -276 215 -470 57 -124 90 -196
131 -287 14 -32 40 -87 56 -123 17 -36 77 -166 133 -290 108 -237 127 -278
196 -428 l43 -93 80 3 80 3 23 60 c13 33 28 69 33 80 5 11 50 126 100 255 51
129 116 296 145 370 53 134 95 241 320 815 504 1284 548 1395 553 1390 2 -2 4
-549 4 -1215 0 -1055 -2 -1214 -15 -1233 -15 -23 -125 -133 -341 -340 -112
-108 -113 -110 -107 -183 1 -8 276 -11 1028 -10 l1027 1 2 42 2 42 -217 212
c-119 116 -221 221 -228 233 -18 31 -18 3081 0 3112 11 19 77 84 357 352 92
88 95 93 95 137 l1 45 -726 0 -726 0 -98 -247 c-54 -137 -104 -261 -111 -278
-7 -16 -27 -66 -44 -110 -18 -44 -36 -89 -41 -100 -5 -11 -26 -63 -46 -115
-20 -52 -42 -108 -50 -125 -7 -16 -22 -55 -34 -85 -11 -30 -25 -64 -30 -75 -5
-11 -41 -101 -80 -200 -39 -99 -75 -189 -80 -200 -5 -11 -100 -247 -210 -525
-111 -278 -205 -508 -209 -512 -3 -4 -23 30 -43 75 -66 146 -629 1385 -733
1612 -16 33 -63 137 -105 230 -106 234 -134 294 -220 485 l-76 165 -762 3
-762 2 0 -44z"/>
</g>
</svg>
